# xmcd
#
# Track frame offsets: 
#        150
#        20180
#        44310
#        58140
#        82175
#        105445
#        124650
#        145065
#        172975
#        195865
#        208600
#        231885
#        249395
#
# Disc length: 3533 seconds
#
# Revision: 0
# Processed by: cddbd v1.5.2PL0 Copyright (c) Steve Scherf et al.
# Submitted via: ExactAudioCopy v1.0b3
#
DISCID=ae0dcb0d
DTITLE=Kern Richards - Anywhere But Home
DYEAR=2011
DGENRE=Country
TTITLE0=10 More Miles
TTITLE1=Anywhere But Home
TTITLE2=Prison Town
TTITLE3=Hard to Say
TTITLE4=Always Here Always Gone
TTITLE5=Down on Blues
TTITLE6=Now That I'm Gone
TTITLE7=Alcohol Dreams
TTITLE8=Left Loving You
TTITLE9=One More to Go
TTITLE10=Can't-Won't Let You Go
TTITLE11=Coming Back to You
TTITLE12=All the Pretty Little Horses
EXTD=
EXTT0=
EXTT1=
EXTT2=
EXTT3=
EXTT4=
EXTT5=
EXTT6=
EXTT7=
EXTT8=
EXTT9=
EXTT10=
EXTT11=
EXTT12=
PLAYORDER=
